<?xml version="1.0" encoding="utf-8"?>
<!-- Generator: Adobe Illustrator 23.0.3, SVG Export Plug-In . SVG Version: 6.00 Build 0)  -->
<svg version="1.1" id="Layer_1" xmlns="http://www.w3.org/2000/svg" xmlns:xlink="http://www.w3.org/1999/xlink" x="0px" y="0px"
	 viewBox="0 0 249.52 57.17" style="enable-background:new 0 0 249.52 57.17;" xml:space="preserve">
<style type="text/css">
	.st0{fill:#5592C9;}
</style>
<g>
	<g>
		<path class="st0" d="M28.79,55.39C14.07,55.39,2.1,43.41,2.1,28.69C2.1,13.98,14.07,2,28.79,2c14.72,0,26.69,11.98,26.69,26.69
			C55.48,43.41,43.51,55.39,28.79,55.39z M28.69,18.17c0.03,0,2.17,2.29,2.17,4.11c0,1.98-1.54,2.45-2.07,2.45
			c-0.03,0-0.06,0-0.09,0h-0.02c-0.03,0-0.07,0-0.09,0c-0.52,0-2.07-0.47-2.07-2.45C26.52,20.45,28.65,18.17,28.69,18.17z
			 M8.59,30.18h2.44v-4.5h4.09V23.8h-4.09v-2.5h4.23v-1.88H8.59V30.18z M30.89,18.49h2.57L30.48,7.73H27.2L24.1,18.49h2.38l0.68-2.4
			h3.11L30.89,18.49z M29.83,14.26h-2.24l1.04-4.68h0.17L29.83,14.26z M41.1,24.8c0,3.16,1.47,5.56,4.56,5.56
			c3.1,0,4.59-2.4,4.59-5.56c0-3.16-1.48-5.56-4.59-5.56C42.57,19.24,41.1,21.64,41.1,24.8z M43.7,24.8c0-2.06,0.51-3.74,1.97-3.74
			c1.47,0,1.99,1.68,1.99,3.74c0,2.06-0.53,3.75-1.99,3.75C44.2,28.55,43.7,26.86,43.7,24.8z M27.65,52.41
			c0.14-1.04,0.28-2.71,0.28-4.67c0-0.54,0-0.18,0-0.33c0-2.76-0.1-3.69-1.94-4.3c-2.84-0.94-4-4.11-3.38-8.06l-9.5-24.17
			c-4.94,4.36-8.06,10.73-8.06,17.81C5.05,41.41,15.09,51.82,27.65,52.41z M28.78,37c-3.78-0.88-5.19-4.33-5.19-7.39L15.27,9.19
			c-0.54,0.38-1.07,0.78-1.58,1.19c1.83,4.34,10.04,23.83,10.06,23.86c1.45,3.5,4.1,2.34,4.74,5.23c0.15,0.7,0.16,1.01,0.16,1.01
			h0.28c0,0,0.01-0.31,0.16-1.01c0.64-2.89,3.28-1.73,4.73-5.23c0.01-0.03,8.23-19.52,10.05-23.86c-0.51-0.42-1.03-0.82-1.58-1.19
			l-8.32,20.42c0,3.06-1.41,6.5-5.19,7.39H28.78z M28.77,30.83c-1.6-0.36-3.6-1.95-3.86-4c-0.09-0.78-0.17-1-0.05-2.55L17.56,7.78
			c-0.59,0.32-1.16,0.66-1.72,1.02c2.18,4.9,8.85,19.87,8.85,19.89c1.06,2.22,2.91,2.26,3.54,3.59c0.38,0.78,0.42,1.49,0.42,1.54
			h0.24c0.01-0.06,0.04-0.76,0.42-1.54c0.64-1.32,2.49-1.37,3.55-3.59c0-0.02,6.67-14.99,8.85-19.89c-0.55-0.37-1.13-0.71-1.72-1.02
			l-7.28,16.51c0.11,1.55,0.04,1.77-0.06,2.55c-0.26,2.05-2.26,3.64-3.85,4H28.77z M28.87,28.03l0.11-0.9
			c0.46-2.09,1.98-1.83,3.03-3.88c0-0.01,0.02-0.03,0.02-0.03c0.03-0.08,5.19-11.14,7.34-15.77c-3.19-1.59-6.78-2.5-10.59-2.5
			c-3.8,0-7.4,0.9-10.59,2.5c2.15,4.62,7.31,15.69,7.35,15.77c0,0,0.01,0.02,0.02,0.03c1.05,2.05,2.56,1.79,3.02,3.88l0.11,0.9
			H28.87z M52.53,28.69c0-7.09-3.12-13.46-8.06-17.81l-9.51,24.17c0.63,3.95-0.54,7.12-3.38,8.06c-1.84,0.61-1.94,1.54-1.94,4.3
			c0,0.15,0-0.21,0,0.33c0,1.96,0.15,3.63,0.28,4.67C42.49,51.82,52.53,41.41,52.53,28.69z M12.55,35.71c0,0,0.35,0.75,0.64,1.28
			c0.28,0.53,0.67,1.17,0.67,1.17l-0.63,0.37c0,0-0.48-0.79-0.91-1.71c-0.12,0.06-0.87,0.45-0.99,0.51
			c0.07,0.13,0.84,1.61,0.84,1.61l-0.63,0.37c0,0-0.78-1.52-0.85-1.64c-0.14,0.07-1.75,0.9-1.75,0.9l-0.39-0.77l3.96-2.06
			L12.55,35.71z M15.05,39.77l0.55,0.66l-3.47,2.9l-0.56-0.66l3.44-2.87L15.05,39.77z M18.27,42.81l0.69,0.49l-0.89,4.78l-0.79-0.45
			c0,0,0.2-0.97,0.22-1.07c-0.04-0.03-0.5-0.31-0.94-0.62c-0.45-0.32-0.89-0.69-0.93-0.71c-0.09,0.05-0.96,0.57-0.96,0.57
			l-0.67-0.58l4.23-2.38L18.27,42.81z M16.26,44.84c0.08,0.07,0.37,0.31,0.68,0.52c0.31,0.21,0.62,0.42,0.71,0.46
			c0.04-0.2,0.36-1.77,0.43-2.06C17.82,43.91,16.44,44.73,16.26,44.84z M21.12,44.57c0,0,0.73,0.37,1.77,0.72
			c0.71,0.25,1.31,0.44,1.9,0.57l-0.21,0.69c0,0-0.56-0.1-1.48-0.38c-0.05,0.15-1.25,3.56-1.25,3.56l-0.82-0.28
			c0,0,1.19-3.41,1.24-3.56c-0.86-0.32-1.45-0.64-1.45-0.64L21.12,44.57z M35.4,45.48c0.3,0.15,0.51,0.43,0.63,0.82
			c0.05,0.17,0.08,0.32,0.08,0.48c0,0.63-0.44,1.13-1.24,1.38c0,0-0.4,0.13-0.52,0.16c0.05,0.14,0.52,1.67,0.52,1.67l-0.79,0.2
			l-1.34-4.35l1.2-0.37C34.54,45.28,35.03,45.29,35.4,45.48z M33.72,46.3c0.04,0.13,0.37,1.2,0.41,1.33
			c0.17-0.05,0.53-0.16,0.53-0.16c0.12-0.04,0.4-0.15,0.54-0.41c0.04-0.08,0.07-0.18,0.07-0.28c0-0.07-0.02-0.15-0.04-0.23
			c-0.05-0.16-0.15-0.28-0.29-0.35c-0.24-0.13-0.57-0.1-0.78-0.04C34.16,46.16,33.83,46.26,33.72,46.3z M38.1,43.58l3.92,2.87
			l-0.7,0.49c0,0-0.79-0.6-0.87-0.66c-0.05,0.03-0.45,0.31-0.89,0.57c-0.41,0.25-0.86,0.47-0.9,0.49c0.02,0.1,0.17,1.06,0.17,1.06
			l-0.75,0.36l-0.66-4.8L38.1,43.58z M38.55,46.62c0.12-0.06,0.42-0.22,0.72-0.4c0.27-0.16,0.49-0.3,0.59-0.38
			c-0.16-0.12-1.38-1.05-1.64-1.25C38.28,44.91,38.51,46.42,38.55,46.62z M42.57,39.63l3.42,3.05l-0.62,0.72c0,0-3.2-0.93-3.69-1.07
			c0.36,0.34,2.35,2.44,2.35,2.44l-0.6,0.54l-3.22-3.27l0.76-0.68c0,0,3.09,0.92,3.58,1.05c-0.36-0.34-2.49-2.18-2.49-2.18
			L42.57,39.63z M44.14,37.35l3.96,2.3l-0.4,0.7l-3.98-2.3L44.14,37.35z M45.85,33.55l0.68,0.35l-0.07,0.08
			c-0.22,0.27-0.32,0.41-0.42,0.71c-0.05,0.14-0.11,0.4-0.01,0.6c0.05,0.1,0.14,0.18,0.27,0.22c0.3,0.1,0.56-0.16,0.86-0.46
			c0.42-0.42,0.94-0.95,1.77-0.67c0.85,0.29,1.14,1.04,0.79,2.07c-0.11,0.32-0.3,0.58-0.48,0.83l-0.04,0.05l-0.7-0.33l0.07-0.08
			c0.08-0.1,0.38-0.44,0.49-0.78c0.11-0.3,0.1-0.8-0.36-0.96c-0.38-0.13-0.66,0.16-0.99,0.5c-0.4,0.42-0.86,0.9-1.62,0.64
			c-0.33-0.11-0.58-0.32-0.72-0.61c-0.17-0.35-0.18-0.78-0.02-1.24c0.1-0.31,0.27-0.63,0.47-0.88L45.85,33.55z"/>
	</g>
	<g>
		<path class="st0" d="M69.12,7.29c2.18,0,4.19,1.63,4.19,5.4c0,3.78-2,5.41-4.19,5.41c-2.18,0-4.19-1.63-4.19-5.41
			C64.93,8.91,66.94,7.29,69.12,7.29z M69.12,16.62c1.22,0,2.2-1.04,2.2-3.93c0-2.89-0.98-3.93-2.2-3.93c-1.22,0-2.2,1.04-2.2,3.93
			C66.92,15.58,67.9,16.62,69.12,16.62z"/>
		<path class="st0" d="M74.9,11.47c0-0.48-0.02-0.93-0.06-1.28h1.69c0.02,0.47,0.06,0.95,0.06,1.42h0.03
			c0.23-0.6,0.81-1.54,1.97-1.54c0.12,0,0.21,0.03,0.32,0.04v1.75c-0.17-0.05-0.33-0.07-0.53-0.07c-0.77,0-1.61,0.47-1.61,1.91v4.25
			H74.9V11.47z"/>
		<path class="st0" d="M80.22,19.15c0.44,0.24,1.31,0.66,2.29,0.66c1.76,0,2.05-1.22,2.05-2.44v-0.74h-0.03
			c-0.3,0.6-0.83,1.31-2.05,1.31c-1.08,0-2.71-0.72-2.71-3.85c0-2.14,0.77-4.02,2.8-4.02c1.13,0,1.66,0.65,2.05,1.32h0.06
			c0-0.41,0.04-0.8,0.06-1.2h1.69c-0.03,0.41-0.06,0.81-0.06,1.22v5.72c0,2.42-0.74,4.16-3.58,4.16c-1.23,0-2.21-0.32-2.66-0.48
			L80.22,19.15z M82.92,16.58c1.17,0,1.64-0.84,1.64-2.6c0-1.63-0.62-2.5-1.51-2.48c-0.98,0.01-1.35,0.92-1.35,2.5
			C81.7,15.81,82.29,16.58,82.92,16.58z"/>
		<path class="st0" d="M88.44,10.65c0.53-0.24,1.27-0.57,2.46-0.57c2.41,0,2.97,1.17,2.97,3.12v3.39c0,0.56,0.06,1.07,0.1,1.37
			h-1.69c-0.09-0.3-0.1-0.68-0.1-1.05h-0.03c-0.47,0.63-1.05,1.17-2.17,1.17c-1.21,0-2.32-0.83-2.32-2.27
			c0-2.11,1.72-2.64,4.08-2.64h0.38v-0.29c0-0.77-0.38-1.48-1.45-1.48c-0.93,0-1.76,0.45-2.12,0.75L88.44,10.65z M92.12,14.15h-0.17
			c-1.6,0-2.54,0.33-2.54,1.46c0,0.71,0.47,1.19,1.19,1.19c1.11,0,1.52-0.83,1.52-2.21V14.15z"/>
		<path class="st0" d="M95.59,11.47c0-0.48-0.02-0.93-0.06-1.28h1.75c0.02,0.39,0.06,0.8,0.06,1.19h0.03
			c0.27-0.47,0.8-1.31,2.06-1.31c1.76,0,2.29,1.31,2.29,2.87v5h-1.87v-4.65c0-1.19-0.3-1.69-1.07-1.69c-0.98,0-1.32,0.83-1.32,1.82
			v4.52h-1.87V11.47z"/>
		<path class="st0" d="M103.55,6.9h1.93v1.84h-1.93V6.9z M103.58,10.19h1.87v7.75h-1.87V10.19z"/>
		<path class="st0" d="M106.89,16.34l3.31-4.73H107v-1.42h5.07v1.6l-3.25,4.74h3.36v1.41h-5.28V16.34z"/>
		<path class="st0" d="M113.82,10.65c0.53-0.24,1.27-0.57,2.46-0.57c2.41,0,2.97,1.17,2.97,3.12v3.39c0,0.56,0.06,1.07,0.1,1.37
			h-1.69c-0.09-0.3-0.11-0.68-0.11-1.05h-0.03c-0.47,0.63-1.05,1.17-2.17,1.17c-1.21,0-2.32-0.83-2.32-2.27
			c0-2.11,1.72-2.64,4.08-2.64h0.38v-0.29c0-0.77-0.38-1.48-1.44-1.48c-0.93,0-1.76,0.45-2.12,0.75L113.82,10.65z M117.49,14.15
			h-0.17c-1.59,0-2.54,0.33-2.54,1.46c0,0.71,0.47,1.19,1.19,1.19c1.11,0,1.52-0.83,1.52-2.21V14.15z"/>
		<path class="st0" d="M126.24,17.75c-0.44,0.17-1.08,0.32-1.84,0.32c-2.56,0-3.64-1.79-3.64-3.99c0-2.21,1.14-4,3.75-4
			c0.59,0,1.28,0.18,1.63,0.32l-0.11,1.48c-0.33-0.17-0.8-0.38-1.31-0.38c-1.42,0-2.03,0.95-2.03,2.6c0,1.45,0.69,2.56,2.12,2.56
			c0.45,0,1.07-0.21,1.33-0.38L126.24,17.75z"/>
		<path class="st0" d="M127.53,6.9h1.93v1.84h-1.93V6.9z M127.56,10.19h1.87v7.75h-1.87V10.19z"/>
		<path class="st0" d="M134.5,10.07c1.58,0,3.4,0.83,3.4,3.99c0,3.25-1.82,4-3.4,4c-1.58,0-3.42-0.75-3.42-4
			C131.08,10.9,132.92,10.07,134.5,10.07z M134.5,16.74c1.21,0,1.48-1.39,1.48-2.68c0-1.3-0.27-2.67-1.48-2.67
			c-1.2,0-1.49,1.37-1.49,2.67C133.01,15.36,133.3,16.74,134.5,16.74z M134.57,7.17h1.75l-1.54,2.17h-1.17L134.57,7.17z"/>
		<path class="st0" d="M139.38,11.47c0-0.48-0.02-0.93-0.06-1.28h1.75c0.02,0.39,0.06,0.8,0.06,1.19h0.03
			c0.27-0.47,0.8-1.31,2.06-1.31c1.76,0,2.29,1.31,2.29,2.87v5h-1.87v-4.65c0-1.19-0.3-1.69-1.07-1.69c-0.98,0-1.32,0.83-1.32,1.82
			v4.52h-1.87V11.47z"/>
		<path class="st0" d="M157.47,6.66v9.97c0,0.56,0.02,1.04,0.06,1.33h-1.75c-0.03-0.23-0.06-0.68-0.06-1.2h-0.05
			c-0.3,0.66-0.86,1.32-2.06,1.32c-1.93,0-2.72-1.84-2.72-3.99c0-2.53,1.01-4,2.68-4c1.11,0,1.73,0.63,2,1.23h0.03V6.66H157.47z
			 M154.13,16.7c1.1,0,1.48-1.19,1.48-2.65c0-1.5-0.42-2.6-1.45-2.6c-1.04,0-1.4,1.01-1.4,2.56C152.76,15.8,153.04,16.7,154.13,16.7
			z"/>
		<path class="st0" d="M164.87,17.57c-0.39,0.17-1.2,0.5-2.32,0.5c-2.5,0-3.58-1.79-3.58-3.88c0-2.32,1.22-4.11,3.19-4.11
			c1.67,0,3.1,0.98,3.1,4.14v0.36h-4.49c0,1.33,0.53,2.12,1.97,2.12c1.14,0,1.69-0.35,2.03-0.6L164.87,17.57z M163.46,13.4
			c0-1.37-0.45-2.06-1.3-2.06c-0.98,0-1.38,1.04-1.38,2.06H163.46z"/>
		<path class="st0" d="M170.8,6.66h1.87v11.29h-1.87V6.66z"/>
		<path class="st0" d="M174.91,10.65c0.53-0.24,1.27-0.57,2.46-0.57c2.41,0,2.97,1.17,2.97,3.12v3.39c0,0.56,0.06,1.07,0.11,1.37
			h-1.69c-0.09-0.3-0.1-0.68-0.1-1.05h-0.03c-0.47,0.63-1.05,1.17-2.17,1.17c-1.21,0-2.32-0.83-2.32-2.27
			c0-2.11,1.72-2.64,4.08-2.64h0.38v-0.29c0-0.77-0.38-1.48-1.45-1.48c-0.93,0-1.76,0.45-2.12,0.75L174.91,10.65z M178.58,14.15
			h-0.17c-1.6,0-2.54,0.33-2.54,1.46c0,0.71,0.47,1.19,1.19,1.19c1.11,0,1.52-0.83,1.52-2.21V14.15z"/>
		<path class="st0" d="M181.85,16.14c0.3,0.12,1.07,0.51,1.94,0.51c0.68,0,1.2-0.17,1.2-0.77c0-0.3-0.15-0.59-0.83-0.98l-0.77-0.45
			c-0.78-0.47-1.64-0.96-1.64-2.18c0-1.07,1.04-2.2,2.68-2.2c0.99,0,1.76,0.26,1.94,0.32l-0.11,1.44c-0.47-0.18-0.96-0.35-1.64-0.35
			c-0.75,0-1.07,0.29-1.07,0.75c0,0.42,0.33,0.65,0.87,0.99l0.92,0.59c0.96,0.62,1.45,1.05,1.45,1.96c0,1.43-1.21,2.29-2.89,2.29
			c-0.96,0-1.76-0.23-2.15-0.38L181.85,16.14z"/>
		<path class="st0" d="M192.35,7.44h2.29l3.49,8.25h0.03V7.44h1.75v10.51h-2.3l-3.48-8.19h-0.03v8.19h-1.75V7.44z"/>
		<path class="st0" d="M202.23,10.65c0.53-0.24,1.27-0.57,2.46-0.57c2.41,0,2.97,1.17,2.97,3.12v3.39c0,0.56,0.06,1.07,0.1,1.37
			h-1.69c-0.09-0.3-0.11-0.68-0.11-1.05h-0.03c-0.47,0.63-1.05,1.17-2.17,1.17c-1.21,0-2.32-0.83-2.32-2.27
			c0-2.11,1.72-2.64,4.08-2.64h0.38v-0.29c0-0.77-0.38-1.48-1.45-1.48c-0.93,0-1.76,0.45-2.12,0.75L202.23,10.65z M205.9,14.15
			h-0.17c-1.6,0-2.54,0.33-2.54,1.46c0,0.71,0.47,1.19,1.19,1.19c1.11,0,1.52-0.83,1.52-2.21V14.15z"/>
		<path class="st0" d="M214.65,17.75c-0.44,0.17-1.08,0.32-1.84,0.32c-2.56,0-3.64-1.79-3.64-3.99c0-2.21,1.14-4,3.75-4
			c0.59,0,1.28,0.18,1.63,0.32l-0.11,1.48c-0.33-0.17-0.8-0.38-1.31-0.38c-1.41,0-2.03,0.95-2.03,2.6c0,1.45,0.69,2.56,2.12,2.56
			c0.45,0,1.07-0.21,1.33-0.38L214.65,17.75z"/>
		<path class="st0" d="M215.94,6.9h1.93v1.84h-1.93V6.9z M215.97,10.19h1.87v7.75h-1.87V10.19z"/>
		<path class="st0" d="M222.91,10.07c1.58,0,3.4,0.83,3.4,3.99c0,3.25-1.82,4-3.4,4c-1.58,0-3.42-0.75-3.42-4
			C219.49,10.9,221.33,10.07,222.91,10.07z M222.91,16.74c1.21,0,1.48-1.39,1.48-2.68c0-1.3-0.27-2.67-1.48-2.67
			c-1.2,0-1.49,1.37-1.49,2.67C221.42,15.36,221.7,16.74,222.91,16.74z"/>
		<path class="st0" d="M227.78,11.47c0-0.48-0.02-0.93-0.06-1.28h1.75c0.02,0.39,0.06,0.8,0.06,1.19h0.03
			c0.27-0.47,0.8-1.31,2.06-1.31c1.76,0,2.29,1.31,2.29,2.87v5h-1.87v-4.65c0-1.19-0.3-1.69-1.07-1.69c-0.98,0-1.32,0.83-1.32,1.82
			v4.52h-1.87V11.47z"/>
		<path class="st0" d="M241.29,17.57c-0.39,0.17-1.2,0.5-2.32,0.5c-2.5,0-3.58-1.79-3.58-3.88c0-2.32,1.22-4.11,3.19-4.11
			c1.67,0,3.1,0.98,3.1,4.14v0.36h-4.49c0,1.33,0.53,2.12,1.97,2.12c1.14,0,1.69-0.35,2.03-0.6L241.29,17.57z M239.87,13.4
			c0-1.37-0.45-2.06-1.3-2.06c-0.98,0-1.38,1.04-1.38,2.06H239.87z"/>
		<path class="st0" d="M242.91,16.14c0.3,0.12,1.07,0.51,1.94,0.51c0.68,0,1.2-0.17,1.2-0.77c0-0.3-0.15-0.59-0.83-0.98l-0.77-0.45
			c-0.78-0.47-1.64-0.96-1.64-2.18c0-1.07,1.04-2.2,2.68-2.2c0.99,0,1.76,0.26,1.94,0.32l-0.1,1.44c-0.47-0.18-0.96-0.35-1.64-0.35
			c-0.75,0-1.07,0.29-1.07,0.75c0,0.42,0.33,0.65,0.87,0.99l0.92,0.59c0.96,0.62,1.45,1.05,1.45,1.96c0,1.43-1.21,2.29-2.89,2.29
			c-0.96,0-1.76-0.23-2.15-0.38L242.91,16.14z"/>
		<path class="st0" d="M67.19,24.45v6.8c0,1.75,0.53,2.32,1.66,2.32c1.1,0,1.64-0.57,1.64-2.32v-6.8h1.93v6.8
			c0,2.77-1.6,3.85-3.57,3.85c-1.99,0-3.58-1.08-3.58-3.85v-6.8H67.19z"/>
		<path class="st0" d="M74.28,28.49c0-0.48-0.02-0.93-0.06-1.28h1.75c0.02,0.39,0.06,0.8,0.06,1.19h0.03
			c0.27-0.47,0.8-1.31,2.06-1.31c1.76,0,2.29,1.31,2.29,2.88v5h-1.87v-4.65c0-1.19-0.3-1.69-1.07-1.69c-0.98,0-1.32,0.83-1.32,1.82
			v4.52h-1.87V28.49z"/>
		<path class="st0" d="M82.24,23.91h1.93v1.84h-1.93V23.91z M82.27,27.21h1.87v7.75h-1.87V27.21z"/>
		<path class="st0" d="M92.37,23.67v9.97c0,0.56,0.02,1.04,0.06,1.32h-1.75c-0.03-0.22-0.06-0.68-0.06-1.2h-0.05
			c-0.3,0.66-0.86,1.32-2.06,1.32c-1.93,0-2.73-1.84-2.73-3.99c0-2.53,1.01-4,2.68-4c1.11,0,1.73,0.63,2,1.23h0.03v-4.65H92.37z
			 M89.03,33.71c1.1,0,1.48-1.19,1.48-2.65c0-1.51-0.42-2.61-1.45-2.61c-1.04,0-1.4,1.01-1.4,2.56
			C87.66,32.81,87.95,33.71,89.03,33.71z"/>
		<path class="st0" d="M94.46,27.66c0.53-0.24,1.27-0.57,2.46-0.57c2.41,0,2.97,1.17,2.97,3.12v3.39c0,0.56,0.06,1.07,0.1,1.37H98.3
			c-0.09-0.3-0.11-0.68-0.11-1.05h-0.03c-0.47,0.63-1.05,1.17-2.17,1.17c-1.21,0-2.32-0.83-2.32-2.27c0-2.11,1.72-2.64,4.08-2.64
			h0.38v-0.29c0-0.77-0.38-1.48-1.45-1.48c-0.93,0-1.76,0.45-2.12,0.75L94.46,27.66z M98.14,31.17h-0.17c-1.6,0-2.54,0.33-2.54,1.46
			c0,0.71,0.47,1.19,1.19,1.19c1.11,0,1.52-0.83,1.52-2.21V31.17z"/>
		<path class="st0" d="M101.4,33.15c0.3,0.12,1.07,0.51,1.94,0.51c0.68,0,1.2-0.17,1.2-0.77c0-0.3-0.15-0.59-0.83-0.98l-0.77-0.45
			c-0.78-0.47-1.64-0.96-1.64-2.19c0-1.07,1.04-2.2,2.68-2.2c0.99,0,1.76,0.26,1.94,0.32l-0.1,1.45c-0.47-0.18-0.96-0.35-1.64-0.35
			c-0.75,0-1.07,0.29-1.07,0.75c0,0.42,0.33,0.65,0.87,0.99l0.92,0.59c0.96,0.62,1.45,1.05,1.45,1.96c0,1.43-1.21,2.29-2.89,2.29
			c-0.96,0-1.76-0.22-2.15-0.38L101.4,33.15z"/>
		<path class="st0" d="M111.68,28.53c0-0.56-0.01-1.04-0.06-1.33h1.75c0.03,0.23,0.06,0.68,0.06,1.21h0.04
			c0.3-0.66,0.86-1.33,2.06-1.33c1.93,0,2.73,1.84,2.73,3.99c0,2.53-1.01,4-2.68,4c-1.11,0-1.73-0.63-2-1.23h-0.03v4.37h-1.87V28.53
			z M114.99,33.71c1.04,0,1.4-1.01,1.4-2.56c0-1.79-0.29-2.7-1.37-2.7c-1.1,0-1.48,1.19-1.48,2.65
			C113.55,32.61,113.97,33.71,114.99,33.71z"/>
		<path class="st0" d="M120.11,27.66c0.53-0.24,1.27-0.57,2.46-0.57c2.41,0,2.97,1.17,2.97,3.12v3.39c0,0.56,0.06,1.07,0.1,1.37
			h-1.69c-0.09-0.3-0.1-0.68-0.1-1.05h-0.03c-0.47,0.63-1.05,1.17-2.17,1.17c-1.21,0-2.32-0.83-2.32-2.27
			c0-2.11,1.72-2.64,4.08-2.64h0.38v-0.29c0-0.77-0.38-1.48-1.44-1.48c-0.93,0-1.76,0.45-2.12,0.75L120.11,27.66z M123.78,31.17
			h-0.17c-1.6,0-2.54,0.33-2.54,1.46c0,0.71,0.47,1.19,1.19,1.19c1.11,0,1.52-0.83,1.52-2.21V31.17z"/>
		<path class="st0" d="M127.32,28.49c0-0.48-0.02-0.93-0.06-1.28h1.69c0.02,0.47,0.06,0.95,0.06,1.42h0.03
			c0.23-0.6,0.81-1.54,1.97-1.54c0.12,0,0.21,0.03,0.32,0.05v1.75c-0.17-0.04-0.33-0.07-0.53-0.07c-0.77,0-1.61,0.47-1.61,1.91v4.25
			h-1.87V28.49z"/>
		<path class="st0" d="M132.78,27.66c0.53-0.24,1.27-0.57,2.45-0.57c2.41,0,2.97,1.17,2.97,3.12v3.39c0,0.56,0.06,1.07,0.11,1.37
			h-1.69c-0.09-0.3-0.11-0.68-0.11-1.05h-0.03c-0.47,0.63-1.05,1.17-2.17,1.17c-1.21,0-2.32-0.83-2.32-2.27
			c0-2.11,1.72-2.64,4.08-2.64h0.38v-0.29c0-0.77-0.38-1.48-1.44-1.48c-0.93,0-1.76,0.45-2.12,0.75L132.78,27.66z M136.46,31.17
			h-0.17c-1.59,0-2.54,0.33-2.54,1.46c0,0.71,0.47,1.19,1.19,1.19c1.11,0,1.52-0.83,1.52-2.21V31.17z"/>
		<path class="st0" d="M144.02,23.67h1.87v11.29h-1.87V23.67z"/>
		<path class="st0" d="M148.13,27.66c0.53-0.24,1.27-0.57,2.46-0.57c2.41,0,2.97,1.17,2.97,3.12v3.39c0,0.56,0.06,1.07,0.1,1.37
			h-1.69c-0.09-0.3-0.11-0.68-0.11-1.05h-0.03c-0.47,0.63-1.05,1.17-2.17,1.17c-1.21,0-2.32-0.83-2.32-2.27
			c0-2.11,1.72-2.64,4.08-2.64h0.38v-0.29c0-0.77-0.38-1.48-1.45-1.48c-0.93,0-1.76,0.45-2.12,0.75L148.13,27.66z M151.81,31.17
			h-0.17c-1.6,0-2.54,0.33-2.54,1.46c0,0.71,0.47,1.19,1.19,1.19c1.11,0,1.52-0.83,1.52-2.21V31.17z"/>
		<path class="st0" d="M163.91,32.43h-3.61l-0.75,2.53h-1.93l3.52-10.51h2.11l3.39,10.51h-1.99L163.91,32.43z M163.5,30.95
			l-1.33-4.91h-0.03l-1.45,4.91H163.5z"/>
		<path class="st0" d="M167.74,23.67h1.87v11.29h-1.87V23.67z"/>
		<path class="st0" d="M171.63,23.91h1.93v1.84h-1.93V23.91z M171.66,27.21h1.87v7.75h-1.87V27.21z"/>
		<path class="st0" d="M175.35,28.47c0-0.56-0.03-0.98-0.06-1.27h1.87c0.02,0.41,0.06,0.81,0.06,1.22h0.03
			c0.29-0.6,0.89-1.34,1.96-1.34c1.31,0,1.73,0.81,1.96,1.23c0.38-0.54,0.93-1.23,2.08-1.23c1.69,0,2.23,1.21,2.23,3.09v4.79h-1.87
			v-4.89c0-0.96-0.3-1.45-0.99-1.45c-0.83,0-1.27,0.78-1.27,1.64v4.7h-1.87v-4.89c0-0.96-0.3-1.45-0.99-1.45
			c-0.83,0-1.26,0.78-1.26,1.64v4.7h-1.87V28.47z"/>
		<path class="st0" d="M192.79,34.58c-0.39,0.17-1.2,0.5-2.32,0.5c-2.5,0-3.58-1.79-3.58-3.88c0-2.32,1.22-4.11,3.19-4.11
			c1.67,0,3.1,0.98,3.1,4.14v0.36h-4.49c0,1.32,0.53,2.12,1.97,2.12c1.14,0,1.69-0.35,2.03-0.6L192.79,34.58z M191.38,30.41
			c0-1.37-0.45-2.06-1.3-2.06c-0.98,0-1.38,1.04-1.38,2.06H191.38z"/>
		<path class="st0" d="M194.63,28.49c0-0.48-0.02-0.93-0.06-1.28h1.75c0.02,0.39,0.06,0.8,0.06,1.19h0.03
			c0.27-0.47,0.8-1.31,2.06-1.31c1.76,0,2.29,1.31,2.29,2.88v5h-1.87v-4.65c0-1.19-0.3-1.69-1.07-1.69c-0.98,0-1.32,0.83-1.32,1.82
			v4.52h-1.87V28.49z"/>
		<path class="st0" d="M203.13,25.61l1.87-0.57v2.17h1.55v1.37H205v4.02c0,0.83,0.3,1.07,0.84,1.07c0.33,0,0.57-0.09,0.71-0.17v1.32
			c-0.29,0.14-0.69,0.26-1.25,0.26c-1.39,0-2.17-0.63-2.17-2.26v-4.24h-1.23v-1.37h1.23V25.61z"/>
		<path class="st0" d="M208.11,27.66c0.53-0.24,1.27-0.57,2.46-0.57c2.41,0,2.97,1.17,2.97,3.12v3.39c0,0.56,0.06,1.07,0.1,1.37
			h-1.69c-0.09-0.3-0.1-0.68-0.1-1.05h-0.03c-0.47,0.63-1.05,1.17-2.17,1.17c-1.21,0-2.32-0.83-2.32-2.27
			c0-2.11,1.72-2.64,4.08-2.64h0.38v-0.29c0-0.77-0.38-1.48-1.45-1.48c-0.93,0-1.76,0.45-2.12,0.75L208.11,27.66z M211.78,31.17
			h-0.17c-1.6,0-2.54,0.33-2.54,1.46c0,0.71,0.47,1.19,1.19,1.19c1.11,0,1.52-0.83,1.52-2.21V31.17z"/>
		<path class="st0" d="M220.53,34.77c-0.44,0.16-1.08,0.31-1.84,0.31c-2.56,0-3.64-1.79-3.64-3.99c0-2.21,1.14-4,3.75-4
			c0.59,0,1.28,0.18,1.63,0.32l-0.11,1.48c-0.33-0.16-0.8-0.38-1.31-0.38c-1.42,0-2.03,0.95-2.03,2.61c0,1.45,0.69,2.56,2.12,2.56
			c0.45,0,1.07-0.21,1.33-0.38L220.53,34.77z"/>
		<path class="st0" d="M221.82,23.91h1.93v1.84h-1.93V23.91z M221.85,27.21h1.87v7.75h-1.87V27.21z"/>
		<path class="st0" d="M228.79,27.09c1.58,0,3.4,0.83,3.4,3.99c0,3.25-1.82,4-3.4,4c-1.58,0-3.42-0.75-3.42-4
			C225.37,27.91,227.21,27.09,228.79,27.09z M228.79,33.76c1.21,0,1.48-1.39,1.48-2.68c0-1.29-0.27-2.67-1.48-2.67
			c-1.2,0-1.49,1.37-1.49,2.67C227.3,32.37,227.59,33.76,228.79,33.76z M228.87,24.18h1.75l-1.54,2.17h-1.17L228.87,24.18z"/>
		<path class="st0" d="M233.67,28.49c0-0.48-0.02-0.93-0.06-1.28h1.75c0.02,0.39,0.06,0.8,0.06,1.19h0.03
			c0.27-0.47,0.8-1.31,2.06-1.31c1.76,0,2.29,1.31,2.29,2.88v5h-1.87v-4.65c0-1.19-0.3-1.69-1.07-1.69c-0.98,0-1.32,0.83-1.32,1.82
			v4.52h-1.87V28.49z"/>
		<path class="st0" d="M67.81,50.08h0.03l1.49-5.86h1.81l-2.83,9.23c-0.33,1.07-0.96,1.87-2.21,1.87c-0.5,0-0.92-0.11-1.19-0.2
			l0.11-1.43c0.21,0.07,0.42,0.15,0.71,0.15c0.56,0.01,0.8-0.33,1.04-1.13l0.14-0.66l-2.58-7.83h1.93L67.81,50.08z"/>
		<path class="st0" d="M76.15,40.68h1.87v11.29h-1.87V40.68z"/>
		<path class="st0" d="M80.26,44.67c0.53-0.24,1.27-0.57,2.46-0.57c2.41,0,2.97,1.17,2.97,3.12v3.39c0,0.56,0.06,1.07,0.1,1.37
			h-1.69c-0.09-0.3-0.1-0.68-0.1-1.05h-0.03c-0.47,0.63-1.05,1.17-2.17,1.17c-1.21,0-2.32-0.83-2.32-2.27
			c0-2.11,1.72-2.64,4.08-2.64h0.38V46.9c0-0.77-0.38-1.47-1.45-1.47c-0.93,0-1.76,0.45-2.12,0.75L80.26,44.67z M83.93,48.18h-0.17
			c-1.6,0-2.54,0.33-2.54,1.46c0,0.71,0.47,1.19,1.19,1.19c1.11,0,1.52-0.83,1.52-2.21V48.18z"/>
		<path class="st0" d="M96.03,49.45h-3.61l-0.75,2.53h-1.93l3.52-10.51h2.11l3.39,10.51h-1.99L96.03,49.45z M95.62,47.97l-1.33-4.91
			h-0.03l-1.45,4.91H95.62z"/>
		<path class="st0" d="M99.93,53.18c0.44,0.24,1.31,0.66,2.29,0.66c1.76,0,2.05-1.22,2.05-2.44v-0.74h-0.03
			c-0.3,0.6-0.83,1.31-2.05,1.31c-1.08,0-2.71-0.72-2.71-3.85c0-2.14,0.77-4.02,2.8-4.02c1.13,0,1.66,0.65,2.05,1.33h0.06
			c0-0.41,0.05-0.8,0.06-1.21h1.69c-0.03,0.41-0.06,0.81-0.06,1.22v5.72c0,2.43-0.74,4.16-3.58,4.16c-1.23,0-2.21-0.32-2.66-0.48
			L99.93,53.18z M102.62,50.6c1.17,0,1.64-0.84,1.64-2.6c0-1.63-0.62-2.5-1.51-2.49c-0.98,0.02-1.35,0.92-1.35,2.5
			C101.4,49.84,101.99,50.6,102.62,50.6z"/>
		<path class="st0" d="M107.83,45.5c0-0.48-0.02-0.93-0.06-1.28h1.69c0.02,0.47,0.06,0.95,0.06,1.42h0.03
			c0.23-0.6,0.81-1.54,1.97-1.54c0.12,0,0.21,0.03,0.32,0.05v1.75c-0.17-0.04-0.33-0.07-0.53-0.07c-0.77,0-1.61,0.47-1.61,1.91v4.25
			h-1.87V45.5z"/>
		<path class="st0" d="M113.22,40.92h1.93v1.84h-1.93V40.92z M113.25,44.22h1.87v7.75h-1.87V44.22z"/>
		<path class="st0" d="M122.25,51.78c-0.44,0.17-1.08,0.32-1.84,0.32c-2.56,0-3.64-1.79-3.64-3.99c0-2.21,1.14-4,3.75-4
			c0.59,0,1.28,0.18,1.63,0.32l-0.11,1.48c-0.33-0.16-0.8-0.38-1.31-0.38c-1.41,0-2.03,0.95-2.03,2.61c0,1.45,0.69,2.56,2.12,2.56
			c0.45,0,1.07-0.21,1.33-0.38L122.25,51.78z"/>
		<path class="st0" d="M129.52,50.69c0,0.48,0.02,0.93,0.06,1.28h-1.75c-0.02-0.39-0.06-0.8-0.06-1.19l-0.04-0.02l0.02,0.02
			c-0.36,0.57-0.84,1.31-2.06,1.31c-1.76,0-2.29-1.31-2.29-2.88v-5h1.87v4.65c0,1.19,0.33,1.69,1.11,1.69c0.99,0,1.28-0.9,1.28-1.9
			v-4.44h1.87V50.69z"/>
		<path class="st0" d="M131.38,40.68h1.87v11.29h-1.87V40.68z"/>
		<path class="st0" d="M135.81,42.62l1.87-0.57v2.17h1.55v1.37h-1.55v4.02c0,0.83,0.3,1.07,0.84,1.07c0.33,0,0.57-0.09,0.71-0.17
			v1.32c-0.29,0.14-0.69,0.26-1.25,0.26c-1.39,0-2.17-0.63-2.17-2.26v-4.24h-1.23v-1.37h1.23V42.62z"/>
		<path class="st0" d="M146.54,50.69c0,0.48,0.01,0.93,0.06,1.28h-1.75c-0.02-0.39-0.06-0.8-0.06-1.19l-0.04-0.02l0.02,0.02
			c-0.36,0.57-0.84,1.31-2.06,1.31c-1.76,0-2.29-1.31-2.29-2.88v-5h1.87v4.65c0,1.19,0.33,1.69,1.11,1.69c0.99,0,1.28-0.9,1.28-1.9
			v-4.44h1.87V50.69z"/>
		<path class="st0" d="M148.28,45.5c0-0.48-0.02-0.93-0.06-1.28h1.69c0.02,0.47,0.06,0.95,0.06,1.42H150
			c0.23-0.6,0.81-1.54,1.97-1.54c0.12,0,0.21,0.03,0.32,0.05v1.75c-0.17-0.04-0.33-0.07-0.53-0.07c-0.77,0-1.61,0.47-1.61,1.91v4.25
			h-1.87V45.5z"/>
		<path class="st0" d="M153.75,44.67c0.53-0.24,1.27-0.57,2.46-0.57c2.41,0,2.97,1.17,2.97,3.12v3.39c0,0.56,0.06,1.07,0.1,1.37
			h-1.69c-0.09-0.3-0.1-0.68-0.1-1.05h-0.03c-0.47,0.63-1.05,1.17-2.17,1.17c-1.21,0-2.32-0.83-2.32-2.27
			c0-2.11,1.72-2.64,4.08-2.64h0.38V46.9c0-0.77-0.38-1.47-1.45-1.47c-0.93,0-1.76,0.45-2.12,0.75L153.75,44.67z M157.42,48.18
			h-0.17c-1.6,0-2.54,0.33-2.54,1.46c0,0.71,0.47,1.19,1.19,1.19c1.11,0,1.52-0.83,1.52-2.21V48.18z"/>
	</g>
</g>
</svg>
