<?xml version="1.0" encoding="utf-8"?>
<!-- Generator: Adobe Illustrator 23.0.3, SVG Export Plug-In . SVG Version: 6.00 Build 0)  -->
<svg version="1.1" id="Layer_1" xmlns="http://www.w3.org/2000/svg" xmlns:xlink="http://www.w3.org/1999/xlink" x="0px" y="0px"
	 viewBox="0 0 479.53 72.33" style="enable-background:new 0 0 479.53 72.33;" xml:space="preserve">
<style type="text/css">
	.st0{fill:#FBBD0B;}
	.st1{fill:#F49B16;}
	.st2{fill:#F0840B;}
	.st3{fill:#348434;}
	.st4{fill:#D70F19;}
	.st5{fill:#442222;}
	.st6{fill:#DD1A16;}
	.st7{fill:#E54D10;}
	.st8{fill:#426528;}
	.st9{fill:#F6A414;}
	.st10{fill:#DC1215;}
	.st11{fill:#F0860B;}
	.st12{fill:#DE2C14;}
	.st13{fill:#459735;}
	.st14{fill:#115829;}
	.st15{fill:#D08F08;}
	.st16{fill:#345C28;}
	.st17{fill:#B11822;}
	.st18{fill:#3C2120;}
	.st19{fill:#961919;}
	.st20{fill:#382120;}
	.st21{fill:#0097CF;}
	.st22{fill:#396D2D;}
	.st23{fill:#7E1528;}
	.st24{fill:#7D1715;}
	.st25{fill:#2F1B2A;}
	.st26{fill:#2F1C19;}
	.st27{fill:#CE0568;}
	.st28{fill:#D01319;}
	.st29{fill:#C67812;}
	.st30{fill:#BB4918;}
	.st31{fill:#AB1918;}
	.st32{fill:#0266AB;}
	.st33{fill:#005D2C;}
	.st34{fill:#173D6D;}
	.st35{fill:#1B3A26;}
	.st36{fill:#1F335D;}
	.st37{fill:#203025;}
	.st38{clip-path:url(#SVGID_2_);fill:#D70F19;}
	.st39{clip-path:url(#SVGID_2_);fill:#D18E08;}
	.st40{clip-path:url(#SVGID_2_);fill:#348434;}
	.st41{clip-path:url(#SVGID_2_);fill:#B11822;}
	.st42{clip-path:url(#SVGID_2_);fill:#DD1A16;}
	.st43{clip-path:url(#SVGID_2_);fill:#0097CF;}
	.st44{clip-path:url(#SVGID_2_);fill:#F6A414;}
	.st45{clip-path:url(#SVGID_2_);fill:#7E1527;}
	.st46{clip-path:url(#SVGID_2_);fill:#E64C10;}
	.st47{clip-path:url(#SVGID_2_);fill:#CE0568;}
	.st48{clip-path:url(#SVGID_2_);fill:#F0860B;}
	.st49{clip-path:url(#SVGID_2_);fill:#C57812;}
	.st50{clip-path:url(#SVGID_2_);fill:#426528;}
	.st51{clip-path:url(#SVGID_2_);fill:#0266AB;}
	.st52{clip-path:url(#SVGID_2_);fill:#459735;}
	.st53{clip-path:url(#SVGID_2_);fill:#173D6D;}
	.st54{clip-path:url(#SVGID_2_);fill:#1E2A4C;}
	.st55{fill:#575856;}
	.st56{fill:#575756;}
	.st57{fill:#F49B00;}
</style>
<g>
	<g>
		<path id="Path_1585_1_" class="st0" d="M86.83,44.39H1.96v4.99h84.86L86.83,44.39"/>
		<path id="Path_1586_1_" class="st1" d="M86.83,54.37H1.96v4.99h84.86L86.83,54.37"/>
		<path id="Path_1587_1_" class="st2" d="M86.83,64.36H1.96v4.99h84.86L86.83,64.36"/>
		<path id="Path_1588_1_" class="st3" d="M16.94,26.92h-4.99V11.89h4.99V26.92"/>
		<path id="Path_1589_1_" class="st4" d="M14.53,1.96c-3.1,0-5.62,2.51-5.62,5.61c0,0,0,0,0,0c0,2.1,1.17,4.02,3.03,4.99v-0.67h4.99
			v0.76c1.96-0.93,3.21-2.91,3.21-5.07C20.14,4.47,17.63,1.96,14.53,1.96"/>
		<path id="Path_1590_1_" class="st5" d="M16.94,11.89h-4.99v0.67c0.8,0.41,1.68,0.63,2.58,0.63c0.83,0,1.66-0.18,2.41-0.54
			L16.94,11.89"/>
		<path id="Path_1591_1_" class="st6" d="M34.44,1.96c-3.1,0-5.62,2.51-5.62,5.62c0,0,0,0,0,0c0,2.12,1.2,4.06,3.09,5.02v-0.71h4.99
			v0.73c1.93-0.94,3.15-2.9,3.15-5.04C40.05,4.47,37.54,1.96,34.44,1.96C34.44,1.96,34.44,1.96,34.44,1.96"/>
		<path id="Path_1592_1_" class="st7" d="M54.34,1.96c-3.1,0-5.62,2.51-5.62,5.61c0,0,0,0,0,0c0,2.15,1.22,4.11,3.15,5.05v-0.74
			h4.99v0.7c1.89-0.95,3.09-2.89,3.09-5.02C59.96,4.47,57.45,1.95,54.34,1.96C54.34,1.95,54.34,1.95,54.34,1.96"/>
		<path id="Path_1593_1_" class="st8" d="M74.26,1.98c-3.1,0-5.62,2.52-5.62,5.62c0,2.17,1.24,4.14,3.2,5.07v-0.78h4.99v0.7
			c1.87-0.96,3.04-2.89,3.04-4.99C79.88,4.49,77.37,1.98,74.26,1.98"/>
		<path id="Path_1594_1_" class="st9" d="M31.91,12.59v11.59l2.5,0.88l2.5-0.88V12.62c-0.77,0.38-1.61,0.57-2.47,0.57
			C33.56,13.19,32.7,12.98,31.91,12.59"/>
		<path id="Path_1595_1_" class="st10" d="M36.9,11.89h-4.99v0.71c0.78,0.39,1.65,0.6,2.52,0.6c0.86,0,1.7-0.19,2.47-0.57V11.89"/>
		<path id="Path_1596_1_" class="st11" d="M56.87,12.59c-0.78,0.4-1.65,0.6-2.53,0.6c-0.85,0-1.7-0.19-2.46-0.57v11.56l2.5,0.88
			l2.5-0.88L56.87,12.59"/>
		<path id="Path_1597_1_" class="st12" d="M56.87,11.89h-4.99v0.74c0.77,0.37,1.61,0.57,2.46,0.57c0.88,0,1.74-0.2,2.53-0.6V11.89"
			/>
		<path id="Path_1598_1_" class="st13" d="M76.84,12.59c-0.8,0.41-1.68,0.63-2.58,0.62c-0.84,0-1.66-0.19-2.42-0.55v11.51l2.5,0.88
			l2.49-0.88L76.84,12.59"/>
		<path id="Path_1599_1_" class="st14" d="M76.84,11.89h-4.99v0.78c0.75,0.36,1.58,0.55,2.42,0.55c0.9,0,1.78-0.21,2.58-0.62V11.89"
			/>
		<path id="Path_1600_1_" class="st15" d="M10.61,23.71L5.68,37.75l4.68,1.64l4.08-11.62l-0.3-0.85h-2.2v-2.74L10.61,23.71"/>
		<path id="Path_1601_1_" class="st16" d="M11.94,24.18v2.74h2.2l-0.55-1.56l0.85-0.3L11.94,24.18"/>
		<path id="Path_1602_1_" class="st17" d="M18.27,23.71l-1.34,0.47v2.74h-2.2l-0.3,0.85l4.08,11.62l4.68-1.64L18.27,23.71"/>
		<path id="Path_1603_1_" class="st18" d="M16.94,24.18l-2.5,0.88l0.85,0.3l-0.55,1.56h2.2V24.18"/>
		<path id="Path_1604_1_" class="st19" d="M14.74,26.92h-0.6l0.3,0.85L14.74,26.92"/>
		<path id="Path_1605_1_" class="st20" d="M14.44,25.06l-0.85,0.3l0.55,1.56h0.6l0.55-1.56L14.44,25.06"/>
		<path id="Path_1606_1_" class="st21" d="M30.58,23.71l-4.93,14.04l4.68,1.64l4.08-11.62l-0.3-0.85h-2.2v-2.74L30.58,23.71"/>
		<path id="Path_1607_1_" class="st22" d="M31.91,24.18v2.74h2.2l-0.55-1.56l0.85-0.3L31.91,24.18"/>
		<path id="Path_1608_1_" class="st23" d="M38.24,23.71l-1.34,0.47v2.74h-2.2l-0.3,0.85l4.08,11.62l4.68-1.64L38.24,23.71"/>
		<path id="Path_1609_1_" class="st24" d="M36.9,24.18l-2.5,0.88l0.85,0.3l-0.55,1.56h2.2L36.9,24.18"/>
		<path id="Path_1610_1_" class="st25" d="M34.7,26.92h-0.6l0.3,0.85L34.7,26.92"/>
		<path id="Path_1611_1_" class="st26" d="M34.41,25.06l-0.85,0.3l0.55,1.56h0.6l0.55-1.56L34.41,25.06"/>
		<path id="Path_1612_1_" class="st27" d="M50.54,23.71l-4.93,14.04l4.68,1.64l4.08-11.62l-0.3-0.85h-2.2v-2.74L50.54,23.71"/>
		<path id="Path_1613_1_" class="st28" d="M51.88,24.18v2.74h2.2l-0.55-1.56l0.85-0.3L51.88,24.18"/>
		<path id="Path_1614_1_" class="st29" d="M58.21,23.71l-1.34,0.47v2.74h-2.2l-0.3,0.85l4.08,11.62l4.68-1.64L58.21,23.71"/>
		<path id="Path_1615_1_" class="st30" d="M56.87,24.18l-2.5,0.88l0.85,0.3l-0.55,1.56h2.2V24.18"/>
		<path id="Path_1616_1_" class="st31" d="M54.68,26.92h-0.6l0.3,0.85L54.68,26.92"/>
		<path id="Path_1617_1_" class="st31" d="M54.38,25.06l-0.85,0.3l0.55,1.56h0.6l0.55-1.56L54.38,25.06"/>
		<path id="Path_1618_1_" class="st32" d="M70.51,23.71l-4.93,14.04l4.68,1.64l4.08-11.62l-0.3-0.85h-2.2v-2.74L70.51,23.71"/>
		<path id="Path_1619_1_" class="st33" d="M71.85,24.18v2.74h2.2l-0.55-1.56l0.85-0.3L71.85,24.18"/>
		<path id="Path_1620_1_" class="st34" d="M78.18,23.71l-1.34,0.47v2.74h-2.2l-0.3,0.85l4.08,11.62l4.68-1.64L78.18,23.71"/>
		<path id="Path_1621_1_" class="st35" d="M76.84,24.18l-2.5,0.88l0.85,0.3l-0.55,1.56h2.2V24.18"/>
		<path id="Path_1622_1_" class="st36" d="M74.64,26.92h-0.6l0.3,0.85L74.64,26.92"/>
		<path id="Path_1623_1_" class="st37" d="M74.35,25.06l-0.85,0.3l0.55,1.56h0.6l0.55-1.56L74.35,25.06"/>
		<g>
			<defs>
				<polyline id="SVGID_1_" points="1.96,14.44 86.82,14.44 86.82,19.43 1.96,19.43 1.96,14.44 				"/>
			</defs>
			<clipPath id="SVGID_2_">
				<use xlink:href="#SVGID_1_"  style="overflow:visible;"/>
			</clipPath>
			<rect id="Rectangle_1597_1_" x="1.96" y="14.44" class="st38" width="4.99" height="4.99"/>
			<rect id="Rectangle_1598_1_" x="6.95" y="14.44" class="st39" width="4.99" height="4.99"/>
			<rect id="Rectangle_1599_1_" x="11.94" y="14.44" class="st40" width="4.99" height="4.99"/>
			<rect id="Rectangle_1600_1_" x="16.94" y="14.44" class="st41" width="4.99" height="4.99"/>
			<rect id="Rectangle_1601_1_" x="21.93" y="14.44" class="st42" width="4.99" height="4.99"/>
			<rect id="Rectangle_1602_1_" x="26.92" y="14.44" class="st43" width="4.99" height="4.99"/>
			<rect id="Rectangle_1603_1_" x="31.91" y="14.44" class="st44" width="4.99" height="4.99"/>
			<rect id="Rectangle_1604_1_" x="36.9" y="14.44" class="st45" width="4.99" height="4.99"/>
			<rect id="Rectangle_1605_1_" x="41.9" y="14.44" class="st46" width="4.99" height="4.99"/>
			<rect id="Rectangle_1606_1_" x="46.89" y="14.44" class="st47" width="4.99" height="4.99"/>
			<rect id="Rectangle_1607_1_" x="51.88" y="14.44" class="st48" width="4.99" height="4.99"/>
			<rect id="Rectangle_1608_1_" x="56.87" y="14.44" class="st49" width="4.99" height="4.99"/>
			<rect id="Rectangle_1609_1_" x="61.86" y="14.44" class="st50" width="4.99" height="4.99"/>
			<rect id="Rectangle_1610_1_" x="66.86" y="14.44" class="st51" width="4.99" height="4.99"/>
			<rect id="Rectangle_1611_1_" x="71.85" y="14.44" class="st52" width="4.99" height="4.99"/>
			<rect id="Rectangle_1612_1_" x="76.84" y="14.44" class="st53" width="4.99" height="4.99"/>
			<rect id="Rectangle_1613_1_" x="81.83" y="14.44" class="st54" width="4.99" height="4.99"/>
		</g>
	</g>
	<g>
		<path id="Path_1638_1_" class="st55" d="M99.77,61.48c0.01-0.94-0.75-1.7-1.69-1.71c-0.06,0-0.13,0-0.19,0.01
			c-0.96,0-1.65,0.48-1.65,1.02v0.47h-1.39v-0.91c0-1.39,1.86-1.97,3.11-1.97c1.7-0.15,3.2,1.11,3.35,2.81
			c0.01,0.09,0.01,0.18,0.01,0.27c0,3.68-5.43,3.74-5.43,6.22c0,0.21,0.12,0.29,0.38,0.29h3.81c0.16,0.02,0.31-0.1,0.33-0.26
			c0-0.02,0-0.05,0-0.07v-0.68h1.4v1.35c0,0.68-0.29,0.97-0.97,0.97h-5.49c-0.84,0-1.02-0.36-1.02-1.23
			C94.33,64.11,99.77,64.38,99.77,61.48z"/>
		<path id="Path_1639_1_" class="st55" d="M103.19,63.91c0-3.08,0.92-5.52,3.79-5.52c2.85,0,3.78,2.44,3.78,5.52
			s-0.93,5.55-3.78,5.55C104.11,69.46,103.19,67,103.19,63.91z M109.22,63.91c0-2.32-0.5-4.14-2.24-4.14
			c-1.76,0-2.26,1.82-2.26,4.14s0.5,4.17,2.26,4.17C108.72,68.08,109.22,66.24,109.22,63.91z"/>
		<path id="Path_1640_1_" class="st55" d="M112.32,67.97h2.35v-6.92c0-0.33,0.02-0.67,0.02-0.67h-0.03c-0.14,0.23-0.3,0.44-0.5,0.62
			l-1,0.99l-0.91-0.94l2.56-2.49h1.38v9.4h2.34v1.3h-6.2L112.32,67.97z"/>
		<path id="Path_1641_1_" class="st55" d="M120.42,67.71c0.48,0.23,1,0.36,1.53,0.36c1.96,0,2.99-1.85,3.21-3.68h-0.03
			c-0.58,0.7-1.46,1.09-2.37,1.05c-1.83,0.04-3.34-1.4-3.38-3.23c0-0.08,0-0.16,0-0.25c-0.11-1.86,1.3-3.46,3.16-3.57
			c0.09-0.01,0.19-0.01,0.28-0.01c2.28,0,4,1.94,4,4.93c0,2.79-1.5,6.14-4.82,6.14c-0.72,0.01-1.43-0.14-2.08-0.44L120.42,67.71z
			 M125.24,62.68c0-1.38-1.03-2.91-2.4-2.91c-1.1,0-1.98,0.89-1.98,1.98c0,0.07,0,0.14,0.01,0.22c-0.08,1.15,0.79,2.14,1.94,2.21
			c0.09,0.01,0.17,0.01,0.26,0C124.27,64.18,125.24,63.45,125.24,62.68L125.24,62.68z"/>
		<path id="Path_1642_1_" class="st55" d="M128.47,64.3h4.43v1.3h-4.43V64.3z"/>
		<path id="Path_1643_1_" class="st55" d="M139.96,61.48c0.01-0.94-0.75-1.7-1.69-1.71c-0.06,0-0.13,0-0.19,0.01
			c-0.96,0-1.65,0.48-1.65,1.02v0.47h-1.39v-0.91c0-1.39,1.86-1.97,3.11-1.97c1.7-0.15,3.2,1.11,3.35,2.81
			c0.01,0.09,0.01,0.18,0.01,0.27c0,3.68-5.43,3.74-5.43,6.22c0,0.21,0.12,0.29,0.38,0.29h3.81c0.16,0.02,0.31-0.1,0.33-0.26
			c0-0.02,0-0.05,0-0.07v-0.68h1.4v1.35c0,0.68-0.29,0.97-0.97,0.97h-5.49c-0.84,0-1.02-0.36-1.02-1.23
			C134.52,64.11,139.96,64.38,139.96,61.48z"/>
		<path id="Path_1644_1_" class="st55" d="M143.38,63.91c0-3.08,0.92-5.52,3.79-5.52c2.85,0,3.78,2.44,3.78,5.52
			s-0.93,5.55-3.78,5.55C144.3,69.46,143.38,67,143.38,63.91z M149.41,63.91c0-2.32-0.5-4.14-2.24-4.14c-1.76,0-2.26,1.82-2.26,4.14
			s0.5,4.17,2.26,4.17C148.91,68.08,149.41,66.24,149.41,63.91z"/>
		<path id="Path_1645_1_" class="st55" d="M157.62,61.48c0.01-0.94-0.75-1.7-1.69-1.71c-0.06,0-0.13,0-0.19,0.01
			c-0.96,0-1.65,0.48-1.65,1.02v0.47h-1.4v-0.91c0-1.39,1.86-1.97,3.11-1.97c1.7-0.15,3.2,1.11,3.35,2.81
			c0.01,0.09,0.01,0.18,0.01,0.27c0,3.68-5.43,3.74-5.43,6.22c0,0.21,0.12,0.29,0.38,0.29h3.81c0.16,0.02,0.31-0.1,0.33-0.26
			c0-0.02,0-0.05,0-0.07v-0.68h1.4v1.35c0,0.68-0.29,0.97-0.97,0.97h-5.49c-0.83,0-1.02-0.36-1.02-1.23
			C152.17,64.11,157.62,64.38,157.62,61.48z"/>
		<path id="Path_1646_1_" class="st55" d="M162.68,63.47v-0.03c-0.79-0.45-1.29-1.28-1.32-2.18c0-1.49,1.18-2.87,3.34-2.87
			c2.05,0,3.35,1.23,3.35,2.9c-0.04,0.99-0.51,1.92-1.29,2.55v0.03c0.96,0.44,1.58,1.4,1.59,2.46c0,1.67-1.52,3.14-3.7,3.14
			c-2.02,0-3.73-1.26-3.73-3.24C161.02,65.07,161.68,64.04,162.68,63.47z M164.65,68.08c1.09,0.09,2.06-0.71,2.17-1.8
			c0-0.94-0.8-1.35-1.8-1.76c-0.36-0.16-0.73-0.29-1.11-0.39c-0.85,0.31-1.43,1.11-1.46,2.02c0.05,1.12,0.99,1.99,2.11,1.94
			C164.6,68.08,164.63,68.08,164.65,68.08L164.65,68.08z M165.44,63.23c0.36,0,1.14-0.89,1.14-1.85c-0.03-0.92-0.8-1.65-1.72-1.62
			c-0.05,0-0.11,0.01-0.16,0.01c-1.17,0-1.85,0.67-1.85,1.52c0,0.94,0.8,1.3,1.76,1.68C164.87,63.09,165.15,63.18,165.44,63.23
			L165.44,63.23z"/>
	</g>
	<g>
		<path class="st56" d="M94.32,7.47h-1.24V5.83h5.47c4.11,0,6.83,2.47,6.83,6.74c0,4.29-2.72,6.77-6.83,6.77h-3.01
			c-0.86,0-1.22-0.36-1.22-1.22V7.47z M96.65,17.69h1.76c3,0,4.98-1.8,4.98-5.13c0-3.31-1.99-5.09-4.98-5.09h-2.18v9.8
			C96.23,17.54,96.38,17.69,96.65,17.69z"/>
		<path class="st56" d="M111.67,9.42c2.72,0,4.17,2.03,4.17,4.54c0,0.25-0.06,0.77-0.06,0.77h-7.06c0.11,2.07,1.61,3.23,3.33,3.23
			c1.67,0,2.83-1.13,2.83-1.13l0.81,1.32c0,0-1.43,1.42-3.73,1.42c-3.06,0-5.15-2.2-5.15-5.07C106.81,11.41,108.92,9.42,111.67,9.42
			z M113.93,13.37c-0.06-1.61-1.07-2.47-2.28-2.47c-1.42,0-2.57,0.86-2.85,2.47H113.93z"/>
		<path class="st56" d="M122.58,9.42c1.17,0,3.48,0.48,3.48,2.12v1h-1.68v-0.54c0-0.69-1.09-1-1.8-1c-1.89,0-3.31,1.42-3.31,3.46
			c0,2.2,1.61,3.44,3.41,3.44c1.82,0,3-1.34,3-1.34l0.81,1.32c0,0-1.38,1.67-3.94,1.67c-3.04,0-5.17-2.16-5.17-5.07
			C117.37,11.64,119.46,9.42,122.58,9.42z"/>
		<path class="st56" d="M132.43,9.42c2.72,0,4.17,2.03,4.17,4.54c0,0.25-0.06,0.77-0.06,0.77h-7.06c0.11,2.07,1.61,3.23,3.33,3.23
			c1.67,0,2.83-1.13,2.83-1.13l0.81,1.32c0,0-1.43,1.42-3.73,1.42c-3.06,0-5.15-2.2-5.15-5.07C127.57,11.41,129.68,9.42,132.43,9.42
			z M134.69,13.37c-0.06-1.61-1.07-2.47-2.28-2.47c-1.42,0-2.57,0.86-2.85,2.47H134.69z"/>
		<path class="st56" d="M139.08,11.66c0-0.29-0.15-0.42-0.42-0.42h-0.79V9.65h1.78c0.82,0,1.22,0.36,1.22,1.07v0.36
			c0,0.31-0.04,0.56-0.04,0.56h0.04c0.38-0.84,1.53-2.22,3.64-2.22c2.3,0,3.33,1.24,3.33,3.71v4.19c0,0.29,0.15,0.42,0.42,0.42h0.78
			v1.59h-1.84c-0.86,0-1.22-0.36-1.22-1.22v-4.55c0-1.36-0.27-2.43-1.82-2.43c-1.49,0-2.68,0.98-3.06,2.37
			c-0.13,0.38-0.17,0.82-0.17,1.3v4.53h-1.85V11.66z"/>
		<path class="st56" d="M151.15,11.66c0-0.29-0.15-0.42-0.42-0.42h-0.78V9.65h1.82c0.86,0,1.22,0.36,1.22,1.22v6.45
			c0,0.29,0.15,0.42,0.42,0.42h0.79v1.59h-1.82c-0.86,0-1.22-0.36-1.22-1.22V11.66z M151.19,5.83h1.67v1.93h-1.67V5.83z"/>
		<path class="st56" d="M160.58,9.42c2.89,0,5.22,2.12,5.22,5.05c0,2.95-2.34,5.09-5.22,5.09c-2.89,0-5.2-2.14-5.2-5.09
			C155.38,11.55,157.7,9.42,160.58,9.42z M160.58,17.96c1.84,0,3.33-1.45,3.33-3.48c0-2.01-1.49-3.44-3.33-3.44
			c-1.82,0-3.31,1.43-3.31,3.44C157.27,16.5,158.77,17.96,160.58,17.96z"/>
		<path class="st56" d="M176.74,9.42c2.24,0,2.99,1.49,2.99,1.49h0.04c0,0-0.04-0.29-0.04-0.65V7.84c0-0.29-0.15-0.42-0.42-0.42
			h-0.79V5.83h1.84c0.86,0,1.22,0.36,1.22,1.22v10.28c0,0.29,0.15,0.42,0.42,0.42h0.78v1.59h-1.78c-0.84,0-1.19-0.38-1.19-1.03
			c0-0.29,0.02-0.5,0.02-0.5h-0.04c0,0-0.8,1.76-3.18,1.76c-2.62,0-4.27-2.07-4.27-5.07C172.36,11.41,174.17,9.42,176.74,9.42z
			 M179.78,14.47c0-1.72-0.9-3.44-2.76-3.44c-1.51,0-2.78,1.26-2.78,3.46c0,2.1,1.13,3.46,2.74,3.46
			C178.42,17.96,179.78,16.94,179.78,14.47z"/>
		<path class="st56" d="M188.77,9.42c2.72,0,4.17,2.03,4.17,4.54c0,0.25-0.06,0.77-0.06,0.77h-7.06c0.11,2.07,1.61,3.23,3.33,3.23
			c1.67,0,2.83-1.13,2.83-1.13l0.81,1.32c0,0-1.43,1.42-3.73,1.42c-3.06,0-5.15-2.2-5.15-5.07C183.91,11.41,186.02,9.42,188.77,9.42
			z M191.03,13.37c-0.06-1.61-1.07-2.47-2.28-2.47c-1.42,0-2.57,0.86-2.85,2.47H191.03z"/>
		<path class="st56" d="M200.52,7.84c0-0.29-0.15-0.42-0.42-0.42h-0.79V5.83h1.84c0.86,0,1.22,0.36,1.22,1.22v10.28
			c0,0.29,0.15,0.42,0.42,0.42h0.79v1.59h-1.84c-0.86,0-1.22-0.36-1.22-1.22V7.84z"/>
		<path class="st56" d="M210.61,13.31h0.42v-0.09c0-1.7-0.63-2.31-2.14-2.31c-0.46,0-1.59,0.11-1.59,0.75v0.56h-1.74v-0.96
			c0-1.59,2.41-1.82,3.35-1.82c3.14,0,3.98,1.65,3.98,3.79v4.11c0,0.29,0.15,0.42,0.42,0.42h0.79v1.59h-1.74
			c-0.86,0-1.21-0.42-1.21-1.11c0-0.33,0.04-0.57,0.04-0.57h-0.04c0,0-0.77,1.91-3.08,1.91c-1.67,0-3.29-1.01-3.29-2.95
			C204.77,13.5,208.98,13.31,210.61,13.31z M208.46,18.07c1.57,0,2.59-1.65,2.59-3.08v-0.32h-0.48c-1.4,0-3.92,0.08-3.92,1.86
			C206.65,17.31,207.24,18.07,208.46,18.07z"/>
		<path class="st56" d="M215.95,16.62c0,0,1.15,1.43,2.93,1.43c0.9,0,1.68-0.4,1.68-1.24c0-1.74-5.28-1.55-5.28-4.67
			c0-1.86,1.63-2.72,3.6-2.72c1.17,0,3.18,0.4,3.18,1.88v0.92h-1.66v-0.48c0-0.58-0.86-0.82-1.45-0.82c-1.09,0-1.8,0.38-1.8,1.15
			c0,1.84,5.28,1.44,5.28,4.67c0,1.72-1.53,2.83-3.56,2.83c-2.59,0-3.87-1.7-3.87-1.7L215.95,16.62z"/>
		<path class="st56" d="M229.04,17.69h0.82c0.27,0,0.42-0.15,0.42-0.42V5.83h1.74l6.01,8.55c0.5,0.73,1.13,1.84,1.13,1.84h0.04
			c0,0-0.13-1.07-0.13-1.84V7.05c0-0.86,0.36-1.22,1.24-1.22h1.91v1.65h-0.82c-0.27,0-0.42,0.13-0.42,0.42v11.44h-1.72l-6.03-8.55
			c-0.5-0.73-1.11-1.84-1.11-1.84h-0.04c0,0,0.12,1.09,0.12,1.84v7.33c0,0.86-0.37,1.22-1.22,1.22h-1.93V17.69z"/>
		<path class="st56" d="M249.3,13.31h0.42v-0.09c0-1.7-0.63-2.31-2.14-2.31c-0.46,0-1.59,0.11-1.59,0.75v0.56h-1.74v-0.96
			c0-1.59,2.41-1.82,3.35-1.82c3.14,0,3.98,1.65,3.98,3.79v4.11c0,0.29,0.15,0.42,0.42,0.42h0.79v1.59h-1.74
			c-0.86,0-1.21-0.42-1.21-1.11c0-0.33,0.04-0.57,0.04-0.57h-0.04c0,0-0.77,1.91-3.08,1.91c-1.67,0-3.29-1.01-3.29-2.95
			C243.47,13.5,247.68,13.31,249.3,13.31z M247.16,18.07c1.57,0,2.59-1.65,2.59-3.08v-0.32h-0.48c-1.4,0-3.92,0.08-3.92,1.86
			C245.34,17.31,245.93,18.07,247.16,18.07z"/>
		<path class="st56" d="M259.06,9.42c1.17,0,3.48,0.48,3.48,2.12v1h-1.68v-0.54c0-0.69-1.09-1-1.8-1c-1.89,0-3.31,1.42-3.31,3.46
			c0,2.2,1.61,3.44,3.41,3.44c1.82,0,3-1.34,3-1.34l0.81,1.32c0,0-1.38,1.67-3.94,1.67c-3.04,0-5.17-2.16-5.17-5.07
			C253.86,11.64,255.94,9.42,259.06,9.42z"/>
		<path class="st56" d="M265.09,11.66c0-0.29-0.15-0.42-0.42-0.42h-0.79V9.65h1.82c0.86,0,1.22,0.36,1.22,1.22v6.45
			c0,0.29,0.15,0.42,0.42,0.42h0.79v1.59h-1.82c-0.86,0-1.22-0.36-1.22-1.22V11.66z M265.13,5.83h1.66v1.93h-1.66V5.83z"/>
		<path class="st56" d="M274.52,9.42c2.89,0,5.22,2.12,5.22,5.05c0,2.95-2.33,5.09-5.22,5.09c-2.89,0-5.2-2.14-5.2-5.09
			C269.32,11.55,271.64,9.42,274.52,9.42z M274.52,17.96c1.84,0,3.33-1.45,3.33-3.48c0-2.01-1.49-3.44-3.33-3.44
			c-1.82,0-3.31,1.43-3.31,3.44C271.22,16.5,272.71,17.96,274.52,17.96z"/>
		<path class="st56" d="M282.06,11.66c0-0.29-0.15-0.42-0.42-0.42h-0.79V9.65h1.78c0.82,0,1.22,0.36,1.22,1.07v0.36
			c0,0.31-0.04,0.56-0.04,0.56h0.04c0.38-0.84,1.53-2.22,3.63-2.22c2.3,0,3.33,1.24,3.33,3.71v4.19c0,0.29,0.15,0.42,0.42,0.42h0.79
			v1.59h-1.84c-0.86,0-1.22-0.36-1.22-1.22v-4.55c0-1.36-0.27-2.43-1.82-2.43c-1.49,0-2.68,0.98-3.06,2.37
			c-0.14,0.38-0.17,0.82-0.17,1.3v4.53h-1.86V11.66z"/>
		<path class="st56" d="M297.97,9.42c2.72,0,4.17,2.03,4.17,4.54c0,0.25-0.06,0.77-0.06,0.77h-7.06c0.11,2.07,1.61,3.23,3.33,3.23
			c1.67,0,2.83-1.13,2.83-1.13l0.81,1.32c0,0-1.43,1.42-3.73,1.42c-3.06,0-5.15-2.2-5.15-5.07C293.11,11.41,295.21,9.42,297.97,9.42
			z M300.23,13.37c-0.06-1.61-1.07-2.47-2.28-2.47c-1.42,0-2.57,0.86-2.85,2.47H300.23z"/>
		<path class="st56" d="M304.46,16.62c0,0,1.15,1.43,2.93,1.43c0.9,0,1.68-0.4,1.68-1.24c0-1.74-5.28-1.55-5.28-4.67
			c0-1.86,1.63-2.72,3.6-2.72c1.17,0,3.18,0.4,3.18,1.88v0.92h-1.66v-0.48c0-0.58-0.86-0.82-1.45-0.82c-1.09,0-1.8,0.38-1.8,1.15
			c0,1.84,5.28,1.44,5.28,4.67c0,1.72-1.53,2.83-3.56,2.83c-2.59,0-3.87-1.7-3.87-1.7L304.46,16.62z"/>
		<path class="st56" d="M318.64,7.89c0-0.29-0.15-0.42-0.42-0.42h-0.82V5.83h1.93c0.86,0,1.22,0.36,1.22,1.22v7.48
			c0,2.03,1.28,3.23,3.23,3.23c1.95,0,3.23-1.2,3.23-3.25V7.05c0-0.86,0.38-1.22,1.24-1.22h1.91v1.65h-0.82
			c-0.27,0-0.42,0.13-0.42,0.42v6.72c0,2.95-2.05,4.96-5.13,4.96c-3.1,0-5.17-2.01-5.17-4.96V7.89z"/>
		<path class="st56" d="M332.37,11.66c0-0.29-0.15-0.42-0.42-0.42h-0.79V9.65h1.78c0.82,0,1.22,0.36,1.22,1.07v0.36
			c0,0.31-0.04,0.56-0.04,0.56h0.04c0.38-0.84,1.53-2.22,3.63-2.22c2.3,0,3.33,1.24,3.33,3.71v4.19c0,0.29,0.15,0.42,0.42,0.42h0.79
			v1.59h-1.84c-0.86,0-1.22-0.36-1.22-1.22v-4.55c0-1.36-0.27-2.43-1.82-2.43c-1.49,0-2.68,0.98-3.06,2.37
			c-0.14,0.38-0.17,0.82-0.17,1.3v4.53h-1.86V11.66z"/>
		<path class="st56" d="M344.45,11.66c0-0.29-0.15-0.42-0.42-0.42h-0.79V9.65h1.82c0.86,0,1.22,0.36,1.22,1.22v6.45
			c0,0.29,0.15,0.42,0.42,0.42h0.79v1.59h-1.82c-0.86,0-1.22-0.36-1.22-1.22V11.66z M344.49,5.83h1.66v1.93h-1.66V5.83z"/>
		<path class="st56" d="M353.08,9.42c2.24,0,2.99,1.49,2.99,1.49h0.04c0,0-0.04-0.29-0.04-0.65V7.84c0-0.29-0.15-0.42-0.42-0.42
			h-0.78V5.83h1.84c0.86,0,1.22,0.36,1.22,1.22v10.28c0,0.29,0.15,0.42,0.42,0.42h0.79v1.59h-1.78c-0.84,0-1.18-0.38-1.18-1.03
			c0-0.29,0.02-0.5,0.02-0.5h-0.04c0,0-0.81,1.76-3.18,1.76c-2.62,0-4.27-2.07-4.27-5.07C348.7,11.41,350.51,9.42,353.08,9.42z
			 M356.12,14.47c0-1.72-0.9-3.44-2.76-3.44c-1.51,0-2.78,1.26-2.78,3.46c0,2.1,1.13,3.46,2.74,3.46
			C354.76,17.96,356.12,16.94,356.12,14.47z"/>
		<path class="st56" d="M366.11,13.31h0.42v-0.09c0-1.7-0.63-2.31-2.14-2.31c-0.46,0-1.59,0.11-1.59,0.75v0.56h-1.74v-0.96
			c0-1.59,2.41-1.82,3.35-1.82c3.14,0,3.98,1.65,3.98,3.79v4.11c0,0.29,0.15,0.42,0.42,0.42h0.78v1.59h-1.74
			c-0.86,0-1.2-0.42-1.2-1.11c0-0.33,0.04-0.57,0.04-0.57h-0.04c0,0-0.77,1.91-3.08,1.91c-1.66,0-3.29-1.01-3.29-2.95
			C360.28,13.5,364.49,13.31,366.11,13.31z M363.97,18.07c1.57,0,2.58-1.65,2.58-3.08v-0.32h-0.48c-1.39,0-3.92,0.08-3.92,1.86
			C362.15,17.31,362.74,18.07,363.97,18.07z"/>
		<path class="st56" d="M371.45,16.62c0,0,1.15,1.43,2.93,1.43c0.9,0,1.68-0.4,1.68-1.24c0-1.74-5.28-1.55-5.28-4.67
			c0-1.86,1.63-2.72,3.6-2.72c1.17,0,3.18,0.4,3.18,1.88v0.92h-1.66v-0.48c0-0.58-0.86-0.82-1.45-0.82c-1.09,0-1.8,0.38-1.8,1.15
			c0,1.84,5.28,1.44,5.28,4.67c0,1.72-1.53,2.83-3.56,2.83c-2.58,0-3.86-1.7-3.86-1.7L371.45,16.62z"/>
		<path class="st56" d="M388.9,9.42c2.24,0,2.99,1.49,2.99,1.49h0.04c0,0-0.04-0.29-0.04-0.65V7.84c0-0.29-0.15-0.42-0.42-0.42
			h-0.79V5.83h1.84c0.86,0,1.22,0.36,1.22,1.22v10.28c0,0.29,0.15,0.42,0.42,0.42h0.78v1.59h-1.78c-0.84,0-1.19-0.38-1.19-1.03
			c0-0.29,0.02-0.5,0.02-0.5h-0.04c0,0-0.8,1.76-3.18,1.76c-2.62,0-4.27-2.07-4.27-5.07C384.52,11.41,386.34,9.42,388.9,9.42z
			 M391.95,14.47c0-1.72-0.9-3.44-2.76-3.44c-1.51,0-2.78,1.26-2.78,3.46c0,2.1,1.13,3.46,2.74,3.46
			C390.59,17.96,391.95,16.94,391.95,14.47z"/>
		<path class="st56" d="M400.94,9.42c2.72,0,4.17,2.03,4.17,4.54c0,0.25-0.06,0.77-0.06,0.77h-7.06c0.11,2.07,1.61,3.23,3.33,3.23
			c1.67,0,2.83-1.13,2.83-1.13l0.81,1.32c0,0-1.43,1.42-3.73,1.42c-3.06,0-5.15-2.2-5.15-5.07C396.08,11.41,398.18,9.42,400.94,9.42
			z M403.2,13.37c-0.06-1.61-1.07-2.47-2.28-2.47c-1.42,0-2.57,0.86-2.85,2.47H403.2z"/>
		<path class="st56" d="M412.69,7.84c0-0.29-0.15-0.42-0.42-0.42h-0.79V5.83h1.84c0.86,0,1.22,0.36,1.22,1.22v10.28
			c0,0.29,0.15,0.42,0.42,0.42h0.79v1.59h-1.84c-0.86,0-1.22-0.36-1.22-1.22V7.84z"/>
		<path class="st56" d="M422.77,13.31h0.42v-0.09c0-1.7-0.63-2.31-2.14-2.31c-0.46,0-1.59,0.11-1.59,0.75v0.56h-1.74v-0.96
			c0-1.59,2.41-1.82,3.35-1.82c3.14,0,3.98,1.65,3.98,3.79v4.11c0,0.29,0.15,0.42,0.42,0.42h0.79v1.59h-1.74
			c-0.86,0-1.21-0.42-1.21-1.11c0-0.33,0.04-0.57,0.04-0.57h-0.04c0,0-0.77,1.91-3.08,1.91c-1.67,0-3.29-1.01-3.29-2.95
			C416.94,13.5,421.15,13.31,422.77,13.31z M420.63,18.07c1.57,0,2.59-1.65,2.59-3.08v-0.32h-0.48c-1.4,0-3.92,0.08-3.92,1.86
			C418.81,17.31,419.41,18.07,420.63,18.07z"/>
	</g>
	<g>
		<path class="st57" d="M92.22,45.69h0.52c0.55,0,0.81-0.13,1.01-0.72l6.88-18.81h4.46l6.85,18.81c0.19,0.59,0.46,0.72,1.01,0.72
			h0.52v3.62h-2.54c-1.63,0-2.22-0.42-2.74-1.89l-1.43-4.04h-7.82l-1.43,4.04c-0.52,1.47-1.08,1.89-2.71,1.89h-2.57V45.69z
			 M105.78,39.85l-1.99-5.8c-0.42-1.27-0.91-3.46-0.91-3.46h-0.06c0,0-0.49,2.18-0.91,3.46l-1.99,5.8H105.78z"/>
		<path class="st57" d="M126.18,25.77c5.67,0,8.44,2.93,8.44,2.93l-2.41,3.06c0,0-2.41-2.05-5.93-2.05c-4.01,0-7.43,3.16-7.43,7.86
			c0,5.05,3.46,8.15,7.6,8.15c3.68,0,5.87-2.41,5.87-2.41v-1.73c0-0.49-0.26-0.72-0.72-0.72h-1.4v-3.62h3.75
			c1.56,0,2.22,0.65,2.22,2.18v9.88h-3.65V48.2c0-0.49,0.03-0.98,0.03-0.98h-0.07c0,0-2.48,2.48-6.81,2.48
			c-6.06,0-11.24-4.63-11.24-12.09C114.41,30.96,119.47,25.77,126.18,25.77z"/>
		<path class="st57" d="M140.62,29.78h-2.12v-3.62h10.36c4.24,0,7.2,2.61,7.2,6.98c0,4.17-2.87,5.9-3.85,6.1v0.06
			c0,0,0.72,0.33,1.14,1.17l2.25,4.46c0.36,0.69,0.91,0.75,1.63,0.75h0.42v3.62h-2.25c-1.73,0-2.48-0.26-3.23-1.73l-2.97-5.84
			c-0.49-0.91-0.98-1.07-2.18-1.07h-2.15v8.64h-4.27V29.78z M148.28,37.02c2.15,0,3.42-1.34,3.42-3.65c0-2.28-1.27-3.59-3.36-3.59
			h-3.46v7.24H148.28z"/>
		<path class="st57" d="M159.23,45.69h2.31V29.78h-2.31v-3.62h8.67v3.62h-2.31v15.91h2.31v3.62h-8.67V45.69z"/>
		<path class="st57" d="M181.85,25.77c2.97,0,8.77,1.24,8.77,5.18v2.58h-3.88v-1.3c0-1.7-2.77-2.48-4.79-2.48
			c-4.14,0-7.4,2.97-7.4,7.79c0,4.53,3.32,8.18,7.53,8.18c4.37,0,7.01-3.06,7.01-3.06l2.25,3.06c0,0-3.36,3.98-9.32,3.98
			c-7.07,0-11.9-5.31-11.9-12.16C170.11,30.86,175.13,25.77,181.85,25.77z"/>
		<path class="st57" d="M195.21,30.5c0-0.46-0.26-0.72-0.72-0.72h-1.4v-3.62h4.17c1.56,0,2.22,0.69,2.22,2.22v12.55
			c0,3.03,1.92,4.79,4.82,4.79c2.9,0,4.82-1.76,4.82-4.82V28.38c0-1.53,0.65-2.22,2.22-2.22h4.17v3.62h-1.4
			c-0.46,0-0.72,0.26-0.72,0.72v10.56c0,5.12-3.62,8.64-9.06,8.64c-5.51,0-9.13-3.52-9.13-8.64V30.5z"/>
		<path class="st57" d="M219.59,30.5c0-0.46-0.26-0.72-0.72-0.72h-1.4v-3.62h4.17c1.57,0,2.22,0.69,2.22,2.22v16.59
			c0,0.46,0.26,0.72,0.72,0.72h5.05c0.46,0,0.72-0.26,0.72-0.72v-1.4h3.88v3.52c0,1.56-0.65,2.22-2.22,2.22h-10.2
			c-1.56,0-2.22-0.65-2.22-2.22V30.5z"/>
		<path class="st57" d="M239.8,29.78h-3.55c-0.46,0-0.72,0.26-0.72,0.72v1.4h-3.75v-3.65c0-1.53,0.52-2.09,2.09-2.09H250
			c1.56,0,2.09,0.56,2.09,2.09v3.65h-3.75v-1.4c0-0.46-0.26-0.72-0.72-0.72h-3.55v19.52h-4.27V29.78z"/>
		<path class="st57" d="M255.54,30.5c0-0.46-0.26-0.72-0.72-0.72h-1.4v-3.62h4.17c1.57,0,2.22,0.69,2.22,2.22v12.55
			c0,3.03,1.92,4.79,4.82,4.79c2.9,0,4.82-1.76,4.82-4.82V28.38c0-1.53,0.65-2.22,2.22-2.22h4.17v3.62h-1.4
			c-0.46,0-0.72,0.26-0.72,0.72v10.56c0,5.12-3.62,8.64-9.06,8.64c-5.51,0-9.13-3.52-9.13-8.64V30.5z"/>
		<path class="st57" d="M279.92,29.78h-2.12v-3.62h10.36c4.24,0,7.2,2.61,7.2,6.98c0,4.17-2.87,5.9-3.85,6.1v0.06
			c0,0,0.72,0.33,1.14,1.17l2.25,4.46c0.36,0.69,0.91,0.75,1.63,0.75h0.42v3.62h-2.25c-1.73,0-2.48-0.26-3.23-1.73l-2.97-5.84
			c-0.49-0.91-0.98-1.07-2.18-1.07h-2.15v8.64h-4.27V29.78z M287.58,37.02c2.15,0,3.42-1.34,3.42-3.65c0-2.28-1.27-3.59-3.36-3.59
			h-3.46v7.24H287.58z"/>
		<path class="st57" d="M297.97,45.69h0.52c0.55,0,0.81-0.13,1.01-0.72l6.88-18.81h4.46l6.85,18.81c0.19,0.59,0.46,0.72,1.01,0.72
			h0.52v3.62h-2.54c-1.63,0-2.22-0.42-2.74-1.89l-1.43-4.04h-7.82l-1.43,4.04c-0.52,1.47-1.08,1.89-2.71,1.89h-2.57V45.69z
			 M311.53,39.85l-1.99-5.8c-0.42-1.27-0.91-3.46-0.91-3.46h-0.06c0,0-0.49,2.18-0.91,3.46l-1.99,5.8H311.53z"/>
		<path class="st57" d="M331.44,29.78h-2.12v-3.62h13.2c1.56,0,2.22,0.69,2.22,2.22v3.52h-3.85v-1.4c0-0.46-0.26-0.72-0.72-0.72
			h-4.47v6.55h7.4v3.62h-7.4v9.35h-4.27V29.78z"/>
		<path class="st57" d="M344.22,45.69h0.52c0.55,0,0.81-0.13,1.01-0.72l6.88-18.81h4.46l6.85,18.81c0.19,0.59,0.46,0.72,1.01,0.72
			h0.52v3.62h-2.54c-1.63,0-2.22-0.42-2.74-1.89l-1.43-4.04h-7.82l-1.43,4.04c-0.52,1.47-1.08,1.89-2.71,1.89h-2.57V45.69z
			 M357.78,39.85l-1.99-5.8c-0.42-1.27-0.91-3.46-0.91-3.46h-0.06c0,0-0.49,2.18-0.91,3.46l-1.99,5.8H357.78z"/>
		<path class="st57" d="M366.42,45.69h1.01c0.46,0,0.68-0.26,0.72-0.72l1.5-18.81h4.43l4.76,11.02c0.55,1.34,1.14,3.1,1.14,3.1h0.07
			c0,0,0.59-1.76,1.14-3.1l4.76-11.02h4.43l1.5,18.81c0.03,0.46,0.26,0.72,0.72,0.72h1.01v3.62h-3.68c-1.53,0-2.05-0.65-2.18-2.22
			l-0.78-10.3c-0.13-1.53-0.03-3.58-0.03-3.58h-0.06c0,0-0.68,2.28-1.27,3.58l-3.85,8.54h-3.45l-3.85-8.54
			c-0.59-1.3-1.27-3.62-1.27-3.62h-0.07c0,0,0.1,2.09-0.03,3.62l-0.75,10.3c-0.13,1.56-0.68,2.22-2.22,2.22h-3.68V45.69z"/>
		<path class="st57" d="M395.42,45.69h2.31V29.78h-2.31v-3.62h8.67v3.62h-2.32v15.91h2.32v3.62h-8.67V45.69z"/>
		<path class="st57" d="M408.56,30.5c0-0.46-0.26-0.72-0.72-0.72h-1.4v-3.62h4.17c1.56,0,2.22,0.69,2.22,2.22v16.59
			c0,0.46,0.26,0.72,0.72,0.72h5.05c0.46,0,0.72-0.26,0.72-0.72v-1.4h3.88v3.52c0,1.56-0.65,2.22-2.22,2.22h-10.2
			c-1.56,0-2.22-0.65-2.22-2.22V30.5z"/>
		<path class="st57" d="M424.76,45.69h2.31V29.78h-2.31v-3.62h8.67v3.62h-2.32v15.91h2.32v3.62h-8.67V45.69z"/>
		<path class="st57" d="M435.02,45.69h0.52c0.55,0,0.81-0.13,1.01-0.72l6.88-18.81h4.46l6.85,18.81c0.19,0.59,0.46,0.72,1.01,0.72
			h0.52v3.62h-2.54c-1.63,0-2.22-0.42-2.74-1.89l-1.43-4.04h-7.82l-1.43,4.04c-0.52,1.47-1.08,1.89-2.71,1.89h-2.57V45.69z
			 M448.59,39.85l-1.99-5.8c-0.42-1.27-0.91-3.46-0.91-3.46h-0.06c0,0-0.49,2.18-0.91,3.46l-1.99,5.8H448.59z"/>
		<path class="st57" d="M459.86,29.78h-2.12v-3.62h10.37c4.24,0,7.2,2.61,7.2,6.98c0,4.17-2.87,5.9-3.85,6.1v0.06
			c0,0,0.72,0.33,1.14,1.17l2.25,4.46c0.36,0.69,0.91,0.75,1.63,0.75h0.42v3.62h-2.25c-1.73,0-2.48-0.26-3.23-1.73l-2.97-5.84
			c-0.49-0.91-0.98-1.07-2.18-1.07h-2.15v8.64h-4.27V29.78z M467.52,37.02c2.15,0,3.42-1.34,3.42-3.65c0-2.28-1.27-3.59-3.36-3.59
			h-3.45v7.24H467.52z"/>
	</g>
</g>
</svg>
